<?xml version="1.0" encoding="UTF-8" standalone="no"?>
<svg
   xmlns:dc="http://purl.org/dc/elements/1.1/"
   xmlns:cc="http://creativecommons.org/ns#"
   xmlns:rdf="http://www.w3.org/1999/02/22-rdf-syntax-ns#"
   xmlns:svg="http://www.w3.org/2000/svg"
   xmlns="http://www.w3.org/2000/svg"
   viewBox="0 0 600 600"
   height="600"
   width="600"
   xml:space="preserve"
   version="1.1"
   id="svg4136"><metadata
     id="metadata4142"><rdf:RDF><cc:Work
         rdf:about=""><dc:format>image/svg+xml</dc:format><dc:type
           rdf:resource="http://purl.org/dc/dcmitype/StillImage" /><dc:title></dc:title></cc:Work></rdf:RDF></metadata><defs
     id="defs4140"><clipPath
       id="clipPath4150"
       clipPathUnits="userSpaceOnUse"><path
         id="path4152"
         d="M 0,792 612,792 612,0 0,0 0,792 Z" /></clipPath></defs><g
     transform="matrix(1.25,0,0,-1.25,0,600)"
     id="g4144"><g
       transform="translate(-67.05315,-156.00012)"
       id="g4146"><g
         clip-path="url(#clipPath4150)"
         id="g4148"><g
           transform="translate(437.3437,416.1172)"
           id="g4154"><path
             id="path4156"
             style="fill:#272d66;fill-opacity:1;fill-rule:nonzero;stroke:none"
             d="M 0,0 91.943,0 C 86.302,93.255 6.582,162.593 6.582,162.593 c -63.924,45.124 -114.689,44.373 -114.689,44.373 -53.018,7.144 -104.911,-13.538 -104.911,-13.538 -68.813,-27.825 -96.263,-72.574 -96.263,-72.574 C -347.637,75.731 -354.64,-0.285 -354.64,-0.285 l 92.552,0.287 c 0,0 20.531,69.949 131.754,69.949 C -19.109,69.951 0,0 0,0" /></g><g
           transform="translate(176.7656,416.1172)"
           id="g4158"><path
             id="path4160"
             style="fill:#272d66;fill-opacity:1;fill-rule:nonzero;stroke:none"
             d="m 0,0 -91.943,0 c 5.638,93.255 85.357,162.593 85.357,162.593 63.925,45.124 114.69,44.373 114.69,44.373 53.02,7.144 104.912,-13.538 104.912,-13.538 C 281.83,165.603 309.28,120.854 309.28,120.854 347.635,75.731 354.637,-0.285 354.637,-0.285 L 261.07,0.002 c 0,0 -19.515,71.891 -130.738,71.891 C 19.11,71.893 0,0 0,0" /></g><g
           transform="translate(186.3877,515.3721)"
           id="g4162"><path
             id="path4164"
             style="fill:#ffffff;fill-opacity:1;fill-rule:nonzero;stroke:none"
             d="m 0,0 239.214,0 c 0,0 -7.012,17.457 -46.171,35.61 0,0 -35.012,20.229 -81.949,16.339 0,0 -51.866,-1.556 -94.396,-33.713 C 16.698,18.236 2.752,8.215 0,0" /></g><g
           transform="translate(84.8555,356.5254)"
           id="g4166"><path
             id="path4168"
             style="fill:#272d66;fill-opacity:1;fill-rule:nonzero;stroke:none"
             d="M 0,0 90.56,0 223.15,-97.428 354.729,0.4 l 89.583,0 c 0,0 -2.791,-75.713 -84.481,-145.449 0,0 -51.405,-37.855 -107.592,-42.239 0,0 -65.35,-10.358 -123.53,18.332 0,0 -58.178,22.314 -90.855,73.719 0,0 -32.673,47.819 -37.854,95.237" /></g></g></g></g></svg>